<svg xmlns="http://www.w3.org/2000/svg" version="1.1" xmlns:xlink="http://www.w3.org/1999/xlink" xmlns:svgjs="http://svgjs.dev/svgjs" width="2000" height="752" viewBox="0 0 2000 752"><g transform="matrix(1,0,0,1,-1.2121210117428518,1.065832121590347)"><svg viewBox="0 0 396 149" data-background-color="#ffffff" preserveAspectRatio="xMidYMid meet" height="752" width="2000" xmlns="http://www.w3.org/2000/svg" xmlns:xlink="http://www.w3.org/1999/xlink"><g id="tight-bounds" transform="matrix(1,0,0,1,0.24000003967489647,-0.21118216238957643)"><svg viewBox="0 0 395.52 149.42236432477915" height="149.42236432477915" width="395.52"><g><svg viewBox="0 0 395.52 149.42236432477915" height="149.42236432477915" width="395.52"><g><svg viewBox="0 0 395.52 149.42236432477915" height="149.42236432477915" width="395.52"><g id="textblocktransform"><svg viewBox="0 0 395.52 149.42236432477915" height="149.42236432477915" width="395.52" id="textblock"><g><svg viewBox="0 0 395.52 149.42236432477915" height="149.42236432477915" width="395.52"><g transform="matrix(1,0,0,1,0,0)"><svg width="395.52" viewBox="1.600000023841858 -44.400001525878906 118.84000396728516 44.900001525878906" height="149.42236432477915" data-palette-color="#a437db"><path d="M1.9 0Q1.6 0 1.6-0.45L1.6-0.45Q1.6-0.95 1.9-1.55 2.2-2.15 2.65-2.55L2.65-2.55Q3.9-3.55 4.33-4.03 4.75-4.5 5-5.15 5.25-5.8 5.6-7.45L5.6-7.45 10.75-31.5 10.4-31.5Q10.1-31.5 9.1-31.6L9.1-31.6Q7.3-31.75 7.15-31.75L7.15-31.75Q4.35-31.75 2.9-29.9L2.9-29.9Q2.8-29.75 2.55-29.38 2.3-29 2.1-29L2.1-29Q1.85-29 1.85-29.45L1.85-29.45Q1.85-29.95 2-30.3L2-30.3Q2.5-32.4 4.15-33.55 5.8-34.7 8.2-34.7L8.2-34.7 9.85-34.65Q11.25-34.55 12.1-34.55L12.1-34.55Q12.9-34.55 13.9-34.65L13.9-34.65 15.2-34.7Q15-34.05 15-32.8L15-32.8Q15-31.15 15.48-28.63 15.95-26.1 16.95-21.7L16.95-21.7 18.5-14.45Q18.6-14 19.15-10.8L19.15-10.8Q21.25-14.95 24.73-21.83 28.2-28.7 30.4-33L30.4-33Q32.3-36.6 33.93-38.68 35.55-40.75 37.3-41.95L37.3-41.95Q38.75-42.9 40.25-43.33 41.75-43.75 43.95-43.9L43.95-43.9Q45.65-44 46.15-44.2L46.15-44.2Q46.25-44.25 46.38-44.33 46.5-44.4 46.6-44.4L46.6-44.4Q46.85-44.4 46.85-44L46.85-44Q46.85-42.3 43.75-41.8L43.75-41.8Q43.55-41.75 42.5-41.6 41.45-41.45 40.43-41.08 39.4-40.7 38.65-40.1L38.65-40.1Q37-38.8 35.8-35.83 34.6-32.85 33.85-27.4L33.85-27.4Q33.5-25.2 33-19.5L33-19.5Q32.4-12 31.35-5.5L31.35-5.5Q31.2-4.3 30.4-3.4L30.4-3.4 30.4-3.35Q31.65-2.9 32.5-2.9L32.5-2.9Q33.2-2.9 33.95-3.18 34.7-3.45 34.85-3.45L34.85-3.45Q35.1-3.45 35.1-3.15L35.1-3.15Q35.1-2.75 34.45-2.05L34.45-2.05Q32.7 0 31.45 0L31.45 0Q31.05 0 29.55-0.4L29.55-0.4Q27.75-0.85 27.2-0.85L27.2-0.85Q26.3-0.85 25.33-0.43 24.35 0 24.25 0L24.25 0Q23.95 0 23.95-0.45L23.95-0.45Q23.95-0.9 24.25-1.48 24.55-2.05 25.15-2.55L25.15-2.55Q26.6-3.6 27.03-4.15 27.45-4.7 27.6-5.65L27.6-5.65 27.85-7.9Q28.4-12.9 28.93-17.6 29.45-22.3 29.9-26.4L29.9-26.4 29.8-26.4Q22.1-12.75 19.9-6.8L19.9-6.8Q19.15-5.2 18.15-3.65 17.15-2.1 16.7-2.1L16.7-2.1Q16.3-2.1 16.3-2.6L16.3-2.6Q16.15-5.65 15.83-7.88 15.5-10.1 14.5-14.95L14.5-14.95Q13.7-18.95 13.7-18.95L13.7-18.95Q12.75-23.15 12.35-25.65L12.35-25.65 12.3-25.65 8.1-5.5Q7.95-4.25 7.2-3.4L7.2-3.4 7.2-3.35Q8.55-2.9 9.2-2.9L9.2-2.9Q9.8-2.9 10.35-3.18 10.9-3.45 11.05-3.45L11.05-3.45Q11.3-3.45 11.3-3.15L11.3-3.15Q11.3-2.7 10.65-2.05L10.65-2.05Q8.75 0 7.65 0L7.65 0Q7.2 0 6.2-0.4L6.2-0.4Q6.05-0.45 5.48-0.65 4.9-0.85 4.35-0.85L4.35-0.85Q3.55-0.85 2.8-0.43 2.05 0 1.9 0L1.9 0ZM45.1-26.65Q44.6-26.65 44.65-27.15L44.65-27.15 45.25-30.65Q45.5-32.1 46.32-32.88 47.15-33.65 48.4-33.65L48.4-33.65 48.6-33.65Q48.9-33.65 48.97-33.55 49.05-33.45 49-33.15L49-33.15 48.45-29.7Q48.25-28.3 47.4-27.48 46.55-26.65 45.3-26.65L45.3-26.65 45.1-26.65ZM42.15 0.5Q40.55 0.5 40.55-1.8L40.55-1.8Q40.55-2.95 40.85-4.45L40.85-4.45 43.25-17.8Q43.45-19.1 43.45-19.4L43.45-19.4Q43.45-20.15 43-20.15L43-20.15Q42.4-20.15 41.55-19.2 40.7-18.25 39.7-16.2L39.7-16.2Q39.5-15.6 39.2-15.6L39.2-15.6Q38.9-15.6 38.9-16.1L38.9-16.1Q38.9-17.3 39.97-19.18 41.05-21.05 42.62-22.43 44.2-23.8 45.55-23.8L45.55-23.8Q47.1-23.8 47.1-21.6L47.1-21.6Q47.1-20.55 46.8-18.85L46.8-18.85 44.2-4.4 44.1-3.75Q44.1-3.2 44.55-3.2L44.55-3.2Q45.15-3.2 46-4.17 46.85-5.15 47.85-7.15L47.85-7.15Q48.1-7.7 48.35-7.7L48.35-7.7Q48.65-7.7 48.65-7.05L48.65-7.05Q48.65-5.9 47.57-4.08 46.5-2.25 44.95-0.88 43.4 0.5 42.15 0.5L42.15 0.5ZM57.2 0.5Q56.4 0.5 55.3 0.3L55.3 0.3Q54.4 0.1 53.85 0.1L53.85 0.1Q53.45 0.1 53.15 0.15 52.85 0.2 52.75 0.2L52.75 0.2 52.7 0.2Q53.15-1 53.35-2.08 53.55-3.15 53.7-4.1L53.7-4.1 56.7-22Q57.8-29.05 59.47-33.45 61.15-37.85 63.75-40.3L63.75-40.3Q65.2-41.65 66.45-42.15 67.7-42.65 69.95-43.05L69.95-43.05Q70.65-43.2 71.22-43.4 71.8-43.6 72-43.6L72-43.6Q72.3-43.6 72.3-43.2L72.3-43.2Q72.3-42.5 71.35-41.75L71.35-41.75Q70.85-41.35 70.42-41.2 70-41.05 69.62-40.98 69.25-40.9 69.1-40.85L69.1-40.85Q67.55-40.65 66.57-40.1 65.6-39.55 64.6-38.15L64.6-38.15Q63.1-35.95 62.1-32.43 61.1-28.9 60.05-22.4L60.05-22.4 58.85-15 58.9-15Q60.75-18.35 63.42-21.08 66.1-23.8 68.05-23.8L68.05-23.8Q69.25-23.8 69.92-22.58 70.6-21.35 70.6-18.95L70.6-18.95Q70.6-13.85 68.65-9.35 66.7-4.85 63.6-2.18 60.5 0.5 57.2 0.5L57.2 0.5ZM59.85-2.5Q61.95-2.5 63.57-4.75 65.2-7 66.05-10.35 66.9-13.7 66.9-16.75L66.9-16.75Q66.9-18.4 66.65-19.05 66.4-19.7 65.75-19.7L65.75-19.7Q64.5-19.7 62.72-17.68 60.95-15.65 59.45-12.58 57.95-9.5 57.4-6.5L57.4-6.5 56.95-3.4Q58.25-2.5 59.85-2.5L59.85-2.5ZM77.59 0.5Q76.79 0.5 75.69 0.3L75.69 0.3Q74.79 0.1 74.24 0.1L74.24 0.1Q73.84 0.1 73.54 0.15 73.24 0.2 73.14 0.2L73.14 0.2 73.09 0.2Q73.54-1 73.74-2.08 73.94-3.15 74.09-4.1L74.09-4.1 77.09-22Q78.19-29.05 79.87-33.45 81.54-37.85 84.14-40.3L84.14-40.3Q85.59-41.65 86.84-42.15 88.09-42.65 90.34-43.05L90.34-43.05Q91.04-43.2 91.62-43.4 92.19-43.6 92.39-43.6L92.39-43.6Q92.69-43.6 92.69-43.2L92.69-43.2Q92.69-42.5 91.74-41.75L91.74-41.75Q91.24-41.35 90.82-41.2 90.39-41.05 90.02-40.98 89.64-40.9 89.49-40.85L89.49-40.85Q87.94-40.65 86.97-40.1 85.99-39.55 84.99-38.15L84.99-38.15Q83.49-35.95 82.49-32.43 81.49-28.9 80.44-22.4L80.44-22.4 79.24-15 79.29-15Q81.14-18.35 83.82-21.08 86.49-23.8 88.44-23.8L88.44-23.8Q89.64-23.8 90.32-22.58 90.99-21.35 90.99-18.95L90.99-18.95Q90.99-13.85 89.04-9.35 87.09-4.85 83.99-2.18 80.89 0.5 77.59 0.5L77.59 0.5ZM80.24-2.5Q82.34-2.5 83.97-4.75 85.59-7 86.44-10.35 87.29-13.7 87.29-16.75L87.29-16.75Q87.29-18.4 87.04-19.05 86.79-19.7 86.14-19.7L86.14-19.7Q84.89-19.7 83.12-17.68 81.34-15.65 79.84-12.58 78.34-9.5 77.79-6.5L77.79-6.5 77.34-3.4Q78.64-2.5 80.24-2.5L80.24-2.5ZM95.69 0.5Q94.74 0.5 94.32-0.43 93.89-1.35 93.89-2.75L93.89-2.75Q93.89-3.7 94.09-5L94.09-5 97.04-24.7Q98.09-31.5 99.59-35.2 101.09-38.9 103.19-40.55L103.19-40.55Q104.39-41.5 105.69-41.95 106.99-42.4 109.69-43.05L109.69-43.05Q110.94-43.3 111.29-43.45 111.64-43.6 111.74-43.6L111.74-43.6Q112.09-43.6 112.09-43.2L112.09-43.2Q112.09-43 111.87-42.6 111.64-42.2 111.14-41.75L111.14-41.75Q110.59-41.25 110.09-41.08 109.59-40.9 108.89-40.85L108.89-40.85Q105.99-40.55 104.69-39.05L104.69-39.05Q102.24-36.25 101.09-28.7L101.09-28.7 97.44-5.15Q97.39-4.8 97.39-4.3L97.39-4.3Q97.39-3.2 98.04-3.2L98.04-3.2Q99.54-3.2 101.54-7.65L101.54-7.65Q101.74-8.2 102.09-8.2L102.09-8.2Q102.44-8.2 102.44-7.5L102.44-7.5Q102.44-5.85 101.27-3.95 100.09-2.05 98.49-0.78 96.89 0.5 95.69 0.5L95.69 0.5ZM110.74 0.5Q108.49 0.5 107.16-1.23 105.84-2.95 105.84-6L105.84-6Q105.84-9.7 107.61-13.93 109.39-18.15 112.19-20.98 114.99-23.8 117.84-23.8L117.84-23.8Q120.44-23.8 120.44-20.65L120.44-20.65Q120.44-18.1 118.94-15.65 117.44-13.2 114.91-11.33 112.39-9.45 109.39-8.45L109.39-8.45Q109.39-5.75 110.26-4.55 111.14-3.35 112.84-3.35L112.84-3.35Q114.64-3.35 116.14-4.5 117.64-5.65 118.69-7.65L118.69-7.65Q118.84-7.95 118.99-8.15 119.14-8.35 119.39-8.35L119.39-8.35Q119.79-8.35 119.79-7.75L119.79-7.75Q119.79-6.4 118.44-4.4 117.09-2.4 114.99-0.95 112.89 0.5 110.74 0.5L110.74 0.5ZM110.99-11.1Q112.29-11.1 113.76-12.03 115.24-12.95 116.24-14.55 117.24-16.15 117.24-18.15L117.24-18.15Q117.24-20.5 115.59-20.5L115.59-20.5Q114.24-20.5 113.01-19.05 111.79-17.6 110.96-15.45 110.14-13.3 109.84-11.3L109.84-11.3Q110.14-11.1 110.99-11.1L110.99-11.1Z" opacity="1" transform="matrix(1,0,0,1,0,0)" fill="#000000" class="wordmark-text-0" data-fill-palette-color="primary" id="text-0"></path></svg></g></svg></g></svg></g></svg></g></svg></g><defs></defs></svg><rect width="395.52" height="149.42236432477915" fill="none" stroke="none" visibility="hidden"></rect></g></svg></g></svg>